<svg xmlns="http://www.w3.org/2000/svg" width="59.259" height="30.69" viewBox="0 0 15.679 8.12" xmlns:v="https://vecta.io/nano"><style><![CDATA[.B{stroke-linejoin:round}.C{stroke-dashoffset:513.601}.D{stroke-width:.16}]]></style><path d="M2.165 0h11.548c1.086 0 1.966.866 1.966 1.933v4.115c0 1.144-.944 2.072-2.107 2.072H1.979C.886 8.12 0 7.249 0 6.174V2.128C0 .953.969 0 2.165 0z" fill="#1f2233"/><g fill="#a4c3b4" stroke="#a4c3b4" class="B C"><g class="D"><rect width="2.137" height="2.241" x="11.552" y="4.627" ry=".366"/><rect width="2.137" height="2.241" x="7.673" y="1.356" ry=".366"/></g><rect width="3.187" height="2.207" x="10.434" y="1.373" ry=".36" stroke-width=".194"/><rect width="2.137" height="2.241" x="8.731" y="4.627" ry=".366" class="D"/></g><g fill="#df9b6a" stroke="#df9b6a" class="B C D"><rect width="2.137" height="2.241" x="4.896" y="1.356" ry=".366"/><rect width="2.137" height="2.241" x="5.954" y="4.627" ry=".366"/><rect width="2.137" height="2.241" x="2.207" y="1.356" ry=".366"/><rect width="3.145" height="2.208" x="2.24" y="4.643" ry=".36"/></g></svg>