<svg xmlns="http://www.w3.org/2000/svg" xmlns:xlink="http://www.w3.org/1999/xlink" width="145.742" height="31.215" viewBox="0 0 38.561 8.259" xmlns:v="https://vecta.io/nano"><style><![CDATA[.B{fill-rule:evenodd}.C{stroke-dashoffset:513.601}.D{stroke-linejoin:round}.E{fill:#8686bf}.F{fill:#d7d7ff}.G{fill:#afafde}.H{stroke:#4a383c}.I{stroke:none}.J{fill:#b3d86e}.K{fill:#92ae5e}.L{fill:#efcd6c}.M{fill:#d3ad63}.N{fill:#b2c196}.O{stroke-width:.493}.P{stroke-width:.048}.Q{fill:#ccb79f}.R{fill:#9fbbb9}.S{fill:#8fc8d9}.T{fill:#82a1b3}.U{stroke-width:.251}.V{fill:#df8e9f}.W{fill:#b57685}.X{stroke-width:.095}.Y{fill:#d8a7a6}.Z{stroke-width:.092}]]></style><g transform="matrix(1.937802 0 0 1.788023 -147.061423 -481.528)"><g transform="matrix(.559277 0 0 .559277 46.997349 172.64297)" class="B"><g class="H"><g transform="matrix(-4.64758 -.18436 -.121643 3.601799 498.6353 -808.75814)"><g class="C D X"><use xlink:href="#B" class="E"/><use xlink:href="#C" class="F"/><use xlink:href="#D" class="G"/></g><g class="I"><use xlink:href="#E" fill="#ddcab5"/><use xlink:href="#F" class="L"/><use xlink:href="#G" class="M"/></g></g><g transform="matrix(-8.540483 0 0 6.620389 831.21538 -1661.2025)"><g class="C D P"><use xlink:href="#H" class="E"/><use xlink:href="#I" class="F"/><use xlink:href="#J" class="G"/></g><g class="I"><use xlink:href="#K" class="R"/><use xlink:href="#L" class="S"/><use xlink:href="#M" class="T"/></g></g></g><g transform="matrix(-1.492255 0 0 1.263493 205.8446 -171.78545)"><g class="C D H U"><use xlink:href="#N" class="E"/><use xlink:href="#O" class="F"/><use xlink:href="#P" class="G"/></g><use xlink:href="#Q" class="N"/><use xlink:href="#R" class="J"/><use xlink:href="#S" class="K"/></g><g class="H"><g transform="matrix(4.647905 -.152313 .154158 3.60132 -369.52891 -811.3497)"><g class="C D X"><use xlink:href="#B" class="E"/><use xlink:href="#C" class="F"/><use xlink:href="#D" class="G"/></g><g class="I"><use xlink:href="#E" fill="#ddcab5"/><use xlink:href="#F" class="L"/><use xlink:href="#G" class="M"/></g></g><g transform="matrix(8.538138 .156766 -.198 6.618573 -638.02002 -1674.725)"><g class="C D P"><use xlink:href="#H" class="E"/><use xlink:href="#I" class="F"/><use xlink:href="#J" class="G"/></g><g class="I"><use xlink:href="#K" class="R"/><use xlink:href="#L" class="S"/><use xlink:href="#M" class="T"/></g></g></g><g stroke-width=".347" class="C D H"><path d="M74.81 173.922l.347.746-.424-.719-.199-.479z" class="E"/><path d="M75.157 174.668l-.424-.719-2.533.05.016.592z" class="F"/><path d="M74.534 173.469l.199.479-2.533.05.416-.431z" class="G"/></g><path d="M72.668 173.967l-.452.624-.016-.592.416-.431z" class="N"/><path d="M74.81 173.922l-.276-.452-1.918.098.052.399z" class="J"/><path d="M74.81 173.922l.347.746-2.94-.077.452-.624z" class="K"/><g transform="matrix(-.719997 0 0 .587355 128.8235 11.569841)"><g transform="matrix(-1 0 0 1 166.34171 -.043598)"><g class="C D H O"><use xlink:href="#T" class="E"/><g stroke-linecap="round"><path d="M84.761 276.364l2.955.026.353.88-4.898-.079-4.898.122.353-.88 2.955-.026" class="F"/><path d="M84.843 275.826l-.082.538m-3.18.044l-2.955.026.104-.583 8.884-.044.104.583c-2.165.124-4.169.112-6.218-.52" class="G"/></g></g><use xlink:href="#U" class="Q"/></g><use xlink:href="#T" class="C D E H O"/><use xlink:href="#U" class="Q"/><path d="M85.009 276.554l2.927.041-.323-.79-4.442-.002-4.442-.041-.323.79 2.927-.041" class="L"/><path d="M84.933 277.169l3.136.101-.133-.674-9.53-.044-.133.674 3.136-.101" class="M"/></g></g><g transform="matrix(-1 0 0 1 171.89642 .133403)" class="B"><g class="H"><g transform="matrix(-2.849737 -.091852 -.065185 2.694797 346.5091 -468.82275)"><g class="C D X"><use xlink:href="#B" class="E"/><use xlink:href="#C" class="F"/><use xlink:href="#D" class="G"/></g><g class="I"><use xlink:href="#E" class="N"/><use xlink:href="#F" class="J"/><use xlink:href="#G" class="K"/></g></g><g transform="matrix(-5.308779 .069819 .072886 4.868841 539.4119 -1085.4529)"><g class="C D P"><use xlink:href="#H" class="E"/><use xlink:href="#I" class="F"/><use xlink:href="#J" class="G"/></g><g class="I"><use xlink:href="#K" class="Y"/><use xlink:href="#L" class="V"/><use xlink:href="#M" class="W"/></g></g><g transform="matrix(-3.160982 -.07673 -.051223 2.848587 368.66718 -512.24849)"><g class="C D X"><use xlink:href="#B" class="E"/><use xlink:href="#C" class="F"/><use xlink:href="#D" class="G"/></g><g class="I"><use xlink:href="#E" class="Q"/><use xlink:href="#F" class="L"/><use xlink:href="#G" class="M"/></g></g></g><g transform="matrix(-.928786 .020477 .020495 .816701 165.46454 44.908558)"><g class="C D H U"><use xlink:href="#N" class="E"/><use xlink:href="#O" class="F"/><use xlink:href="#P" class="G"/></g><use xlink:href="#Q" class="Q"/><use xlink:href="#R" class="L"/><use xlink:href="#S" class="M"/></g><g transform="matrix(-.489996 -.012405 -.013416 .453052 130.59717 146.18218)"><g class="C D H O"><use xlink:href="#T" class="E"/><use xlink:href="#V" class="F"/><use xlink:href="#W" class="G"/></g><use xlink:href="#U" class="R"/><path d="M87.936 276.596l-.323-.79-2.769.019.165.729z" class="S"/><path d="M87.936 276.596l.133.674-3.136-.101.076-.615z" class="T"/></g><g transform="matrix(-6.208044 .102393 .113623 5.594513 608.16804 -1288.9438)" class="H"><g class="C D P"><use xlink:href="#H" class="E"/><use xlink:href="#I" class="F"/><use xlink:href="#J" class="G"/></g><g class="I"><use xlink:href="#K" class="R"/><use xlink:href="#L" class="S"/><use xlink:href="#M" class="T"/></g></g><g transform="matrix(-1.197236 0 0 1.078915 195.9114 -24.251373)"><g class="C D H U"><use xlink:href="#N" class="E"/><use xlink:href="#O" class="F"/><use xlink:href="#P" class="G"/></g><use xlink:href="#Q" class="N"/><use xlink:href="#R" class="J"/><use xlink:href="#S" class="K"/></g><g class="H"><g transform="matrix(-3.909777 0 0 3.630699 419.05124 -735.00942)"><g class="C D Z"><use xlink:href="#B" class="E"/><use xlink:href="#C" class="F"/><use xlink:href="#D" class="G"/></g><g class="I"><use xlink:href="#E" fill="#cbdcab"/><use xlink:href="#F" class="J"/><use xlink:href="#G" class="K"/></g></g><g transform="matrix(-6.932857 .270636 .270636 6.932857 629.45972 -1674.2778)"><g class="C D P"><use xlink:href="#H" class="E"/><use xlink:href="#I" class="F"/><use xlink:href="#J" class="G"/></g><g class="I"><use xlink:href="#K" class="Y"/><use xlink:href="#L" class="V"/><use xlink:href="#M" class="W"/></g></g></g><g transform="matrix(-.551769 -.001998 -.001533 .497238 132.2978 133.67835)"><g class="C D H O"><use xlink:href="#T" class="E"/><use xlink:href="#V" class="F"/><use xlink:href="#W" class="G"/></g><use xlink:href="#U" class="Q"/><path d="M87.936 276.596l-.323-.79-2.769.019.06.729z" class="L"/><path d="M87.936 276.596l.133.674-3.136-.101-.029-.615z" class="M"/></g><g transform="matrix(-1.337147 .042151 .042151 1.337147 197.43865 -98.115784)"><g class="C D H U"><use xlink:href="#N" class="E"/><use xlink:href="#O" class="F"/><use xlink:href="#P" class="G"/></g><use xlink:href="#Q" class="Q"/><use xlink:href="#R" class="L"/><use xlink:href="#S" class="M"/></g></g><g transform="translate(1.042 .146)" class="B"><g class="H"><g transform="matrix(-2.793028 -.09872 -.07144 2.699524 341.77238 -469.58335)"><g class="C D X"><use xlink:href="#B" class="E"/><use xlink:href="#C" class="F"/><use xlink:href="#D" class="G"/></g><g class="I"><use xlink:href="#E" class="N"/><use xlink:href="#F" class="J"/><use xlink:href="#G" class="K"/></g></g><g transform="matrix(-5.204054 0 0 4.87824 548.6138 -1081.8222)"><g class="C D P"><use xlink:href="#H" class="E"/><use xlink:href="#I" class="F"/><use xlink:href="#J" class="G"/></g><g class="I"><use xlink:href="#K" class="Y"/><use xlink:href="#L" class="V"/><use xlink:href="#M" class="W"/></g></g><g transform="matrix(-3.255115 -.067289 -.050002 2.841084 375.28282 -511.01749)"><g class="C D X"><use xlink:href="#B" class="E"/><use xlink:href="#C" class="F"/><use xlink:href="#D" class="G"/></g><g class="I"><use xlink:href="#E" class="Q"/><use xlink:href="#F" class="L"/><use xlink:href="#G" class="M"/></g></g></g><g transform="matrix(-.910524 -.0148 -.011324 .818331 170.90692 47.775259)"><g class="C D H U"><use xlink:href="#N" class="E"/><use xlink:href="#O" class="F"/><use xlink:href="#P" class="G"/></g><use xlink:href="#Q" class="Q"/><use xlink:href="#R" class="L"/><use xlink:href="#S" class="M"/></g><g transform="matrix(-.475533 -.006931 -.005663 .454749 125.64187 145.25013)"><g class="C D H O"><use xlink:href="#T" class="E"/><use xlink:href="#V" class="F"/><use xlink:href="#W" class="G"/></g><use xlink:href="#U" class="R"/><path d="M87.936 276.596l-.323-.79-2.769.019.165.729z" class="S"/><path d="M87.936 276.596l.133.674-3.136-.101.076-.615z" class="T"/></g><g transform="matrix(-.508226 0 0 .463545 128.5343 142.22059)"><g class="C D H O"><path d="M87.936 276.596l.133.674-.353-.88.091-.524z" class="E"/><path d="M88.069 277.27l-.353-.88-2.876-.025-.102.803z" class="F"/><path d="M87.808 275.865l-.091.524-2.876-.025.1-.539z" class="N"/></g><path d="M87.936 276.596l-.128-.731-2.917-.04-.129.716z" class="V"/><path d="M87.936 276.596l.075.672-3.326-.097.077-.629z" class="W"/></g><g transform="matrix(-6.500354 .207563 .159638 5.872136 620.50939 -1375.4113)" class="H"><g class="C D P"><use xlink:href="#H" class="E"/><use xlink:href="#I" class="F"/><use xlink:href="#J" class="G"/></g><g class="I"><use xlink:href="#K" class="R"/><use xlink:href="#L" class="S"/><use xlink:href="#M" class="T"/></g></g><g transform="matrix(-1.232844 0 0 1.076034 198.13709 -23.493701)"><g class="C D H U"><use xlink:href="#N" class="E"/><use xlink:href="#O" class="F"/><use xlink:href="#P" class="G"/></g><use xlink:href="#Q" class="N"/><use xlink:href="#R" class="J"/><use xlink:href="#S" class="K"/></g><g class="H"><g transform="matrix(-5.189377 0 0 3.512599 529.87989 -702.21814)"><g class="C D"><path d="M87.571 277.158l.068.28-.149-.197.021-.203z" stroke-width=".089" class="E"/><g class="Z"><path d="M87.639 277.439l-.147-.197-.578.055.069.162z" class="F"/><path d="M87.503 277.04l-.011.202-.578.055.12-.188z" class="G"/></g></g><g class="I"><use xlink:href="#E" class="Y"/><path d="M87.571 277.158l-.06-.12-.505.08.06.103z" class="V"/><path d="M87.571 277.158l.068.28-.657.02.084-.237z" class="W"/></g></g><g transform="matrix(-6.919813 .503919 .503919 6.919813 563.17683 -1691.6582)"><g class="C D P"><use xlink:href="#H" class="E"/><use xlink:href="#I" class="F"/><use xlink:href="#J" class="G"/></g><g class="I"><use xlink:href="#K" fill="#cbdcab"/><use xlink:href="#L" class="J"/><use xlink:href="#M" class="K"/></g></g></g><g transform="matrix(-.568183 0 0 .495913 132.16097 133.85409)"><g class="C D H O"><use xlink:href="#T" class="J"/><use xlink:href="#V" class="F"/><use xlink:href="#W" class="G"/></g><use xlink:href="#U" class="Y"/><path d="M87.936 276.596l-.323-.79-2.769.019.06.729z" class="V"/><path d="M87.936 276.596l.133.674-3.136-.101-.029-.615z" class="W"/></g><g transform="matrix(-.501065 0 0 .508139 128.13916 130.49171)"><g class="C D H O"><path d="M87.936 276.596l.133.674-.353-.88.091-.524z" class="E"/><path d="M88.069 277.27l-.353-.88-2.876-.025-.102.803z" class="F"/><path d="M87.808 275.865l-.091.524-2.876-.025.1-.539z" class="N"/></g><path d="M87.936 276.596l-.128-.731-2.917-.04-.129.716z" class="J"/><path d="M87.936 276.596l.075.672-3.326-.097.077-.629z" class="K"/></g><g transform="matrix(-1.337468 .030312 .030312 1.337468 200.26565 -97.086125)"><g class="C D H U"><use xlink:href="#N" class="E"/><use xlink:href="#O" class="F"/><use xlink:href="#P" class="G"/></g><use xlink:href="#Q" class="R"/><use xlink:href="#R" class="S"/><use xlink:href="#S" class="T"/></g><g transform="matrix(-.741829 0 0 .671552 148.1064 86.137104)"><g class="C D H O"><use xlink:href="#T" class="E"/><use xlink:href="#V" class="F"/><use xlink:href="#W" class="G"/></g><use xlink:href="#U" opacity="0" class="N"/><path d="M87.936 276.596l-.236-.778-2.856.008.041.717z" class="J"/><path d="M87.936 276.596l.133.674-3.207-.048.022-.677z" class="K"/></g><g stroke-width=".349" class="C D H"><path d="M87.554 271.881l.029.431-.163-.57-.077-.392z" class="E"/><path d="M87.583 272.313l-.163-.57-2.101.103.036.42z" class="F"/><path d="M87.343 271.351l.077.392-2.101-.026-.031-.353z" class="G"/></g><path d="M85.412 271.853l-.056.413-.128-.541.061-.361z" opacity="0" class="Y"/><path d="M87.583 271.881l-.175-.522-2.119.005.031.482z" class="V"/><path d="M87.583 271.881l.05.431-2.33-.011.017-.455z" class="W"/></g><path d="M75.891 272.459v.323l.014.546s.123.594.883.594h18.263s.664.108.705-.756l.034-.708z" fill="#4a4240"/></g><defs ><path id="B" d="M87.563 277.165l.106.266-.177-.19-.048-.189z"/><path id="C" d="M87.669 277.431l-.177-.19-.578.055.069.162z"/><path id="D" d="M87.444 277.053l.048.189-.578.055.093-.178z"/><path id="E" d="M87.067 277.222l-.084.237-.069-.162.093-.178z"/><path id="F" d="M87.563 277.165l-.119-.112-.438.066.06.103z"/><path id="G" d="M87.563 277.165l.106.266-.686.027.084-.237z"/><path id="H" d="M90.228 277.152l.075.165-.079-.109-.047-.12z"/><path id="I" d="M90.303 277.317l-.079-.109-.322.021.022.091z"/><path id="J" d="M90.178 277.088l.047.12-.322.021.034-.109z"/><path id="K" d="M89.956 277.177l-.032.143-.022-.091.034-.109z"/><path id="L" d="M90.228 277.152l-.05-.063-.242.031.02.057z"/><path id="M" d="M90.228 277.152l.075.165-.379.003.032-.143z"/><path id="N" d="M95.595 273.616l.232.591-.284-.569-.133-.379z"/><path id="O" d="M95.828 274.207l-.284-.569-1.697.039.011.469z"/><path id="P" d="M95.41 273.258l.133.379-1.697.039.278-.341z"/><path id="Q" d="M94.16 273.652l-.303.494-.011-.469.278-.341z"/><path id="R" d="M95.595 273.616l-.185-.358-1.285.078.035.316z"/><path id="S" d="M95.595 273.616l.232.591-1.97-.061.303-.494z"/><path id="T" d="M87.936 276.596l.133.674-.353-.88-.104-.583z"/><path id="U" d="M85.009 276.554l-.076.615-.172-.805.082-.538z"/><path id="V" d="M88.069 277.27l-.353-.88-2.955-.026.172.805z"/><path id="W" d="M87.613 275.806l.104.583-2.955-.026.082-.538z"/></defs></svg>