<?xml version="1.0" encoding="UTF-8" standalone="no"?>
<!DOCTYPE svg PUBLIC "-//W3C//DTD SVG 1.1//EN"
 "http://www.w3.org/Graphics/SVG/1.1/DTD/svg11.dtd">
<!-- Generated by graphviz version 12.1.1 (0)
 -->
<!-- Title: graphname Pages: 1 -->
<svg width="1317pt" height="483pt"
 viewBox="0.00 0.00 1316.53 483.00" xmlns="http://www.w3.org/2000/svg" xmlns:xlink="http://www.w3.org/1999/xlink">
<g id="graph0" class="graph" transform="scale(1 1) rotate(0) translate(4 479)">
<title>graphname</title>
<polygon fill="white" stroke="none" points="-4,4 -4,-479 1312.53,-479 1312.53,4 -4,4"/>
<!-- src/typingMetrics/KeyMetrics.ts -->
<g id="node1" class="node">
<title>src/typingMetrics/KeyMetrics.ts</title>
<polygon fill="none" stroke="black" points="759.03,-73.5 759.03,-109.5 952.03,-109.5 952.03,-73.5 759.03,-73.5"/>
<text text-anchor="middle" x="855.53" y="-86.45" font-family="Times,serif" font-size="14.00">src/typingMetrics/KeyMetrics.ts</text>
</g>
<!-- src/typingContent/character/types.ts -->
<g id="node2" class="node">
<title>src/typingContent/character/types.ts</title>
<polygon fill="none" stroke="black" points="645.03,-0.5 645.03,-36.5 856.03,-36.5 856.03,-0.5 645.03,-0.5"/>
<text text-anchor="middle" x="750.53" y="-13.45" font-family="Times,serif" font-size="14.00">src/typingContent/character/types.ts</text>
</g>
<!-- src/typingMetrics/KeyMetrics.ts&#45;&gt;src/typingContent/character/types.ts -->
<g id="edge1" class="edge">
<title>src/typingMetrics/KeyMetrics.ts&#45;&gt;src/typingContent/character/types.ts</title>
<path fill="none" stroke="#ab6fec" d="M829.84,-73.13C816.5,-64.11 799.99,-52.94 785.49,-43.14"/>
<polygon fill="#ab6fec" stroke="#ab6fec" points="787.81,-40.49 777.57,-37.78 783.89,-46.28 787.81,-40.49"/>
</g>
<!-- src/typingMetrics/KeypressMetrics.ts -->
<g id="node3" class="node">
<title>src/typingMetrics/KeypressMetrics.ts</title>
<polygon fill="none" stroke="black" points="421.15,-219.5 421.15,-255.5 641.9,-255.5 641.9,-219.5 421.15,-219.5"/>
<text text-anchor="middle" x="531.53" y="-232.45" font-family="Times,serif" font-size="14.00">src/typingMetrics/KeypressMetrics.ts</text>
</g>
<!-- src/typingMetrics/KeypressMetrics.ts&#45;&gt;src/typingContent/character/types.ts -->
<g id="edge5" class="edge">
<title>src/typingMetrics/KeypressMetrics.ts&#45;&gt;src/typingContent/character/types.ts</title>
<path fill="none" stroke="#acfa5c" d="M571.33,-219.06C625.03,-195.75 718.02,-156.18 753.53,-146 798.62,-133.07 931.32,-145.89 961.53,-110 996.73,-68.19 933.69,-45.2 867.55,-32.87"/>
<polygon fill="#acfa5c" stroke="#acfa5c" points="868.44,-29.48 857.98,-31.18 867.21,-36.37 868.44,-29.48"/>
</g>
<!-- src/List.ts -->
<g id="node4" class="node">
<title>src/List.ts</title>
<polygon fill="none" stroke="black" points="183.9,-73.5 183.9,-109.5 253.15,-109.5 253.15,-73.5 183.9,-73.5"/>
<text text-anchor="middle" x="218.53" y="-86.45" font-family="Times,serif" font-size="14.00">src/List.ts</text>
</g>
<!-- src/typingMetrics/KeypressMetrics.ts&#45;&gt;src/List.ts -->
<g id="edge2" class="edge">
<title>src/typingMetrics/KeypressMetrics.ts&#45;&gt;src/List.ts</title>
<path fill="none" stroke="#acfa5c" d="M497.03,-219.08C452.36,-196.59 376.87,-158.82 348.53,-146 340.29,-142.27 298.04,-124.94 263.91,-111"/>
<polygon fill="#acfa5c" stroke="#acfa5c" points="265.6,-107.91 255.02,-107.37 262.96,-114.39 265.6,-107.91"/>
</g>
<!-- src/typingContent/word/types.ts -->
<g id="node5" class="node">
<title>src/typingContent/word/types.ts</title>
<polygon fill="none" stroke="black" points="551.9,-73.5 551.9,-109.5 741.15,-109.5 741.15,-73.5 551.9,-73.5"/>
<text text-anchor="middle" x="646.53" y="-86.45" font-family="Times,serif" font-size="14.00">src/typingContent/word/types.ts</text>
</g>
<!-- src/typingMetrics/KeypressMetrics.ts&#45;&gt;src/typingContent/word/types.ts -->
<g id="edge3" class="edge">
<title>src/typingMetrics/KeypressMetrics.ts&#45;&gt;src/typingContent/word/types.ts</title>
<path fill="none" stroke="#acfa5c" d="M580.43,-219.21C597.71,-210.8 615.76,-198.98 627.53,-183 640.63,-165.21 645.14,-140.38 646.5,-121.23"/>
<polygon fill="#acfa5c" stroke="#acfa5c" points="649.99,-121.54 646.93,-111.39 643,-121.23 649.99,-121.54"/>
</g>
<!-- src/typingContent/word/stats.ts -->
<g id="node6" class="node">
<title>src/typingContent/word/stats.ts</title>
<polygon fill="none" stroke="black" points="434.15,-146.5 434.15,-182.5 618.9,-182.5 618.9,-146.5 434.15,-146.5"/>
<text text-anchor="middle" x="526.53" y="-159.45" font-family="Times,serif" font-size="14.00">src/typingContent/word/stats.ts</text>
</g>
<!-- src/typingMetrics/KeypressMetrics.ts&#45;&gt;src/typingContent/word/stats.ts -->
<g id="edge4" class="edge">
<title>src/typingMetrics/KeypressMetrics.ts&#45;&gt;src/typingContent/word/stats.ts</title>
<path fill="none" stroke="#acfa5c" d="M530.32,-219.31C529.78,-211.64 529.13,-202.39 528.52,-193.74"/>
<polygon fill="#acfa5c" stroke="#acfa5c" points="532.03,-193.77 527.83,-184.04 525.05,-194.26 532.03,-193.77"/>
</g>
<!-- src/typingMetrics/TypingProjection.ts -->
<g id="node7" class="node">
<title>src/typingMetrics/TypingProjection.ts</title>
<polygon fill="none" stroke="black" points="30.4,-146.5 30.4,-182.5 252.65,-182.5 252.65,-146.5 30.4,-146.5"/>
<text text-anchor="middle" x="141.53" y="-159.45" font-family="Times,serif" font-size="14.00">src/typingMetrics/TypingProjection.ts</text>
</g>
<!-- src/typingMetrics/KeypressMetrics.ts&#45;&gt;src/typingMetrics/TypingProjection.ts -->
<g id="edge6" class="edge">
<title>src/typingMetrics/KeypressMetrics.ts&#45;&gt;src/typingMetrics/TypingProjection.ts</title>
<path fill="none" stroke="#acfa5c" d="M435.62,-219.04C378.95,-208.72 307.06,-195.63 248.54,-184.98"/>
<polygon fill="#acfa5c" stroke="#acfa5c" points="249.35,-181.57 238.89,-183.22 248.1,-188.46 249.35,-181.57"/>
</g>
<!-- src/typingContent/word/types.ts&#45;&gt;src/typingContent/character/types.ts -->
<g id="edge7" class="edge">
<title>src/typingContent/word/types.ts&#45;&gt;src/typingContent/character/types.ts</title>
<path fill="none" stroke="#d2bb2b" d="M671.97,-73.13C685.06,-64.19 701.23,-53.16 715.49,-43.42"/>
<polygon fill="#d2bb2b" stroke="#d2bb2b" points="717.45,-46.32 723.74,-37.79 713.51,-40.54 717.45,-46.32"/>
</g>
<!-- src/typingContent/word/stats.ts&#45;&gt;src/List.ts -->
<g id="edge8" class="edge">
<title>src/typingContent/word/stats.ts&#45;&gt;src/List.ts</title>
<path fill="none" stroke="#8f48ba" d="M433.81,-149.17C385.36,-140.65 325.09,-128.45 264.46,-110.64"/>
<polygon fill="#8f48ba" stroke="#8f48ba" points="265.57,-107.32 254.99,-107.81 263.56,-114.03 265.57,-107.32"/>
</g>
<!-- src/typingContent/word/stats.ts&#45;&gt;src/typingContent/word/types.ts -->
<g id="edge9" class="edge">
<title>src/typingContent/word/stats.ts&#45;&gt;src/typingContent/word/types.ts</title>
<path fill="none" stroke="#8f48ba" d="M555.88,-146.13C571.43,-136.93 590.73,-125.52 607.51,-115.58"/>
<polygon fill="#8f48ba" stroke="#8f48ba" points="608.93,-118.81 615.76,-110.71 605.37,-112.79 608.93,-118.81"/>
</g>
<!-- src/typingMetrics/TypingProjection.ts&#45;&gt;src/typingContent/character/types.ts -->
<g id="edge11" class="edge">
<title>src/typingMetrics/TypingProjection.ts&#45;&gt;src/typingContent/character/types.ts</title>
<path fill="none" stroke="#2a1f6b" d="M142.5,-146.34C144.68,-125.38 151.75,-90.57 174.53,-73 209.99,-45.66 475.59,-30.45 633.47,-23.73"/>
<polygon fill="#2a1f6b" stroke="#2a1f6b" points="633.29,-27.24 643.13,-23.33 633,-20.25 633.29,-27.24"/>
</g>
<!-- src/typingMetrics/TypingProjection.ts&#45;&gt;src/List.ts -->
<g id="edge10" class="edge">
<title>src/typingMetrics/TypingProjection.ts&#45;&gt;src/List.ts</title>
<path fill="none" stroke="#2a1f6b" d="M160.17,-146.31C169.56,-137.66 181.12,-127 191.46,-117.46"/>
<polygon fill="#2a1f6b" stroke="#2a1f6b" points="193.7,-120.15 198.68,-110.8 188.96,-115.01 193.7,-120.15"/>
</g>
<!-- src/typingMetrics/KeypressMetricsSessions.ts -->
<g id="node8" class="node">
<title>src/typingMetrics/KeypressMetricsSessions.ts</title>
<polygon fill="none" stroke="black" points="400.9,-292.5 400.9,-328.5 668.15,-328.5 668.15,-292.5 400.9,-292.5"/>
<text text-anchor="middle" x="534.53" y="-305.45" font-family="Times,serif" font-size="14.00">src/typingMetrics/KeypressMetricsSessions.ts</text>
</g>
<!-- src/typingMetrics/KeypressMetricsSessions.ts&#45;&gt;src/typingMetrics/KeypressMetrics.ts -->
<g id="edge12" class="edge">
<title>src/typingMetrics/KeypressMetricsSessions.ts&#45;&gt;src/typingMetrics/KeypressMetrics.ts</title>
<path fill="none" stroke="#5426f3" d="M533.8,-292.31C533.48,-284.64 533.09,-275.39 532.72,-266.74"/>
<polygon fill="#5426f3" stroke="#5426f3" points="536.23,-266.88 532.31,-257.04 529.24,-267.18 536.23,-266.88"/>
</g>
<!-- src/typingMetrics/KeysProjection.ts -->
<g id="node9" class="node">
<title>src/typingMetrics/KeysProjection.ts</title>
<polygon fill="none" stroke="black" points="18.65,-292.5 18.65,-328.5 230.4,-328.5 230.4,-292.5 18.65,-292.5"/>
<text text-anchor="middle" x="124.53" y="-305.45" font-family="Times,serif" font-size="14.00">src/typingMetrics/KeysProjection.ts</text>
</g>
<!-- src/typingMetrics/KeysProjection.ts&#45;&gt;src/typingMetrics/TypingProjection.ts -->
<g id="edge13" class="edge">
<title>src/typingMetrics/KeysProjection.ts&#45;&gt;src/typingMetrics/TypingProjection.ts</title>
<path fill="none" stroke="#dbf080" d="M126.58,-292.13C129.45,-267.8 134.71,-223.3 138.16,-194.06"/>
<polygon fill="#dbf080" stroke="#dbf080" points="141.6,-194.78 139.29,-184.43 134.65,-193.96 141.6,-194.78"/>
</g>
<!-- src/typingMetrics/Metrics.ts -->
<g id="node10" class="node">
<title>src/typingMetrics/Metrics.ts</title>
<polygon fill="none" stroke="black" points="611.28,-438.5 611.28,-474.5 781.78,-474.5 781.78,-438.5 611.28,-438.5"/>
<text text-anchor="middle" x="696.53" y="-451.45" font-family="Times,serif" font-size="14.00">src/typingMetrics/Metrics.ts</text>
</g>
<!-- src/typingMetrics/Metrics.ts&#45;&gt;src/typingContent/character/types.ts -->
<g id="edge17" class="edge">
<title>src/typingMetrics/Metrics.ts&#45;&gt;src/typingContent/character/types.ts</title>
<path fill="none" stroke="#9e0b0f" d="M782.27,-453.08C950.7,-445.98 1308.53,-418.33 1308.53,-311.5 1308.53,-311.5 1308.53,-311.5 1308.53,-163.5 1308.53,-73.22 1031.19,-38.66 867.56,-26.13"/>
<polygon fill="#9e0b0f" stroke="#9e0b0f" points="868.21,-22.67 857.98,-25.41 867.69,-29.65 868.21,-22.67"/>
</g>
<!-- src/typingMetrics/Metrics.ts&#45;&gt;src/typingMetrics/KeypressMetrics.ts -->
<g id="edge19" class="edge">
<title>src/typingMetrics/Metrics.ts&#45;&gt;src/typingMetrics/KeypressMetrics.ts</title>
<path fill="none" stroke="#9e0b0f" d="M699.93,-438.03C705.2,-405.51 711.5,-335.09 677.53,-292 666.77,-278.35 652.18,-268.18 636.38,-260.61"/>
<polygon fill="#9e0b0f" stroke="#9e0b0f" points="637.79,-257.41 627.23,-256.6 634.98,-263.82 637.79,-257.41"/>
</g>
<!-- src/typingMetrics/Metrics.ts&#45;&gt;src/List.ts -->
<g id="edge14" class="edge">
<title>src/typingMetrics/Metrics.ts&#45;&gt;src/List.ts</title>
<path fill="none" stroke="#9e0b0f" d="M611.22,-450.36C495.34,-442.51 299.94,-425.91 277.53,-402 199.56,-318.83 302.72,-252.3 261.53,-146 257.71,-136.15 251.38,-126.71 244.74,-118.57"/>
<polygon fill="#9e0b0f" stroke="#9e0b0f" points="247.44,-116.34 238.22,-111.13 242.17,-120.95 247.44,-116.34"/>
</g>
<!-- src/typingMetrics/Metrics.ts&#45;&gt;src/typingContent/word/types.ts -->
<g id="edge16" class="edge">
<title>src/typingMetrics/Metrics.ts&#45;&gt;src/typingContent/word/types.ts</title>
<path fill="none" stroke="#9e0b0f" d="M704.22,-438.16C715.32,-411.49 734.53,-358.56 734.53,-311.5 734.53,-311.5 734.53,-311.5 734.53,-236.5 734.53,-189.44 699.89,-144.75 674.07,-117.98"/>
<polygon fill="#9e0b0f" stroke="#9e0b0f" points="676.67,-115.62 667.13,-111.01 671.71,-120.56 676.67,-115.62"/>
</g>
<!-- src/typingMetrics/Metrics.ts&#45;&gt;src/typingMetrics/TypingProjection.ts -->
<g id="edge22" class="edge">
<title>src/typingMetrics/Metrics.ts&#45;&gt;src/typingMetrics/TypingProjection.ts</title>
<path fill="none" stroke="#9e0b0f" d="M610.83,-454.23C441.53,-449.56 74.9,-427.99 9.53,-329 -25.53,-275.92 48.42,-219.29 99.14,-188.58"/>
<polygon fill="#9e0b0f" stroke="#9e0b0f" points="100.8,-191.66 107.63,-183.56 97.24,-185.63 100.8,-191.66"/>
</g>
<!-- src/typingMetrics/Metrics.ts&#45;&gt;src/typingMetrics/KeysProjection.ts -->
<g id="edge20" class="edge">
<title>src/typingMetrics/Metrics.ts&#45;&gt;src/typingMetrics/KeysProjection.ts</title>
<path fill="none" stroke="#9e0b0f" d="M611.08,-450.72C499.04,-443.53 309.15,-427.96 244.53,-402 207.6,-387.16 172.08,-357.88 149.4,-336.64"/>
<polygon fill="#9e0b0f" stroke="#9e0b0f" points="152.09,-334.37 142.45,-329.98 147.25,-339.43 152.09,-334.37"/>
</g>
<!-- src/typingContent/paragraphs/types.ts -->
<g id="node11" class="node">
<title>src/typingContent/paragraphs/types.ts</title>
<polygon fill="none" stroke="black" points="762.15,-146.5 762.15,-182.5 982.9,-182.5 982.9,-146.5 762.15,-146.5"/>
<text text-anchor="middle" x="872.53" y="-159.45" font-family="Times,serif" font-size="14.00">src/typingContent/paragraphs/types.ts</text>
</g>
<!-- src/typingMetrics/Metrics.ts&#45;&gt;src/typingContent/paragraphs/types.ts -->
<g id="edge15" class="edge">
<title>src/typingMetrics/Metrics.ts&#45;&gt;src/typingContent/paragraphs/types.ts</title>
<path fill="none" stroke="#9e0b0f" d="M718.35,-438.01C728.94,-428.43 740.97,-415.73 748.53,-402 788.9,-328.73 744.7,-287.63 792.53,-219 800.9,-206.99 812.9,-196.94 825.08,-188.91"/>
<polygon fill="#9e0b0f" stroke="#9e0b0f" points="826.85,-191.93 833.53,-183.7 823.18,-185.97 826.85,-191.93"/>
</g>
<!-- src/typingOptions/typingOptions.ts -->
<g id="node12" class="node">
<title>src/typingOptions/typingOptions.ts</title>
<polygon fill="none" stroke="black" points="901.28,-365.5 901.28,-401.5 1107.78,-401.5 1107.78,-365.5 901.28,-365.5"/>
<text text-anchor="middle" x="1004.53" y="-378.45" font-family="Times,serif" font-size="14.00">src/typingOptions/typingOptions.ts</text>
</g>
<!-- src/typingMetrics/Metrics.ts&#45;&gt;src/typingOptions/typingOptions.ts -->
<g id="edge18" class="edge">
<title>src/typingMetrics/Metrics.ts&#45;&gt;src/typingOptions/typingOptions.ts</title>
<path fill="none" stroke="#9e0b0f" d="M772.27,-438.04C816.29,-427.89 871.92,-415.07 917.7,-404.52"/>
<polygon fill="#9e0b0f" stroke="#9e0b0f" points="918.38,-407.95 927.34,-402.29 916.81,-401.13 918.38,-407.95"/>
</g>
<!-- src/typingMetrics/TypingMetrics.ts -->
<g id="node13" class="node">
<title>src/typingMetrics/TypingMetrics.ts</title>
<polygon fill="none" stroke="black" points="286.15,-365.5 286.15,-401.5 494.9,-401.5 494.9,-365.5 286.15,-365.5"/>
<text text-anchor="middle" x="390.53" y="-378.45" font-family="Times,serif" font-size="14.00">src/typingMetrics/TypingMetrics.ts</text>
</g>
<!-- src/typingMetrics/Metrics.ts&#45;&gt;src/typingMetrics/TypingMetrics.ts -->
<g id="edge21" class="edge">
<title>src/typingMetrics/Metrics.ts&#45;&gt;src/typingMetrics/TypingMetrics.ts</title>
<path fill="none" stroke="#9e0b0f" d="M621.28,-438.04C577.55,-427.89 522.28,-415.07 476.79,-404.52"/>
<polygon fill="#9e0b0f" stroke="#9e0b0f" points="477.76,-401.15 467.23,-402.3 476.18,-407.97 477.76,-401.15"/>
</g>
<!-- src/typingContent/paragraphs/types.ts&#45;&gt;src/typingContent/word/types.ts -->
<g id="edge23" class="edge">
<title>src/typingContent/paragraphs/types.ts&#45;&gt;src/typingContent/word/types.ts</title>
<path fill="none" stroke="#fc10ce" d="M816.95,-146.04C785.48,-136.15 745.92,-123.73 712.84,-113.33"/>
<polygon fill="#fc10ce" stroke="#fc10ce" points="713.92,-110 703.33,-110.35 711.82,-116.68 713.92,-110"/>
</g>
<!-- src/typingContent/TypingGameSource.ts -->
<g id="node14" class="node">
<title>src/typingContent/TypingGameSource.ts</title>
<polygon fill="none" stroke="black" points="1042.53,-219.5 1042.53,-255.5 1280.53,-255.5 1280.53,-219.5 1042.53,-219.5"/>
<text text-anchor="middle" x="1161.53" y="-232.45" font-family="Times,serif" font-size="14.00">src/typingContent/TypingGameSource.ts</text>
</g>
<!-- src/typingOptions/typingOptions.ts&#45;&gt;src/typingContent/TypingGameSource.ts -->
<g id="edge24" class="edge">
<title>src/typingOptions/typingOptions.ts&#45;&gt;src/typingContent/TypingGameSource.ts</title>
<path fill="none" stroke="#3f01da" d="M1068.45,-365.06C1088.62,-357.04 1109.51,-345.49 1124.53,-329 1140.01,-312.01 1146.93,-286.59 1151.49,-267.01"/>
<polygon fill="#3f01da" stroke="#3f01da" points="1154.86,-267.99 1153.68,-257.46 1148.04,-266.43 1154.86,-267.99"/>
</g>
<!-- src/typingOptions/typingModeKind.ts -->
<g id="node15" class="node">
<title>src/typingOptions/typingModeKind.ts</title>
<polygon fill="none" stroke="black" points="801.03,-219.5 801.03,-255.5 1024.03,-255.5 1024.03,-219.5 801.03,-219.5"/>
<text text-anchor="middle" x="912.53" y="-232.45" font-family="Times,serif" font-size="14.00">src/typingOptions/typingModeKind.ts</text>
</g>
<!-- src/typingOptions/typingOptions.ts&#45;&gt;src/typingOptions/typingModeKind.ts -->
<g id="edge25" class="edge">
<title>src/typingOptions/typingOptions.ts&#45;&gt;src/typingOptions/typingModeKind.ts</title>
<path fill="none" stroke="#3f01da" d="M922.39,-365.01C903.98,-357.1 886.64,-345.63 875.53,-329 862.22,-309.08 874.84,-283.61 888.84,-264.77"/>
<polygon fill="#3f01da" stroke="#3f01da" points="891.5,-267.04 894.99,-257.03 886.03,-262.68 891.5,-267.04"/>
</g>
<!-- src/typingOptions/typingGameOptions.ts -->
<g id="node16" class="node">
<title>src/typingOptions/typingGameOptions.ts</title>
<polygon fill="none" stroke="black" points="884.78,-292.5 884.78,-328.5 1124.28,-328.5 1124.28,-292.5 884.78,-292.5"/>
<text text-anchor="middle" x="1004.53" y="-305.45" font-family="Times,serif" font-size="14.00">src/typingOptions/typingGameOptions.ts</text>
</g>
<!-- src/typingOptions/typingOptions.ts&#45;&gt;src/typingOptions/typingGameOptions.ts -->
<g id="edge26" class="edge">
<title>src/typingOptions/typingOptions.ts&#45;&gt;src/typingOptions/typingGameOptions.ts</title>
<path fill="none" stroke="#3f01da" d="M1004.53,-365.31C1004.53,-357.73 1004.53,-348.6 1004.53,-340.04"/>
<polygon fill="#3f01da" stroke="#3f01da" points="1008.03,-340.04 1004.53,-330.04 1001.03,-340.04 1008.03,-340.04"/>
</g>
<!-- src/typingMetrics/TypingMetrics.ts&#45;&gt;src/typingMetrics/KeypressMetrics.ts -->
<g id="edge34" class="edge">
<title>src/typingMetrics/TypingMetrics.ts&#45;&gt;src/typingMetrics/KeypressMetrics.ts</title>
<path fill="none" stroke="#efad96" d="M385.37,-365.1C380.68,-345.48 376.53,-313.53 391.53,-292 400.95,-278.47 414.29,-268.36 429.03,-260.8"/>
<polygon fill="#efad96" stroke="#efad96" points="430.46,-264 438.05,-256.61 427.51,-257.65 430.46,-264"/>
</g>
<!-- src/typingMetrics/TypingMetrics.ts&#45;&gt;src/List.ts -->
<g id="edge32" class="edge">
<title>src/typingMetrics/TypingMetrics.ts&#45;&gt;src/List.ts</title>
<path fill="none" stroke="#efad96" d="M384.92,-365.18C369.09,-316.94 323.34,-182.25 294.53,-146 285.34,-134.44 273.01,-124.3 260.95,-116.06"/>
<polygon fill="#efad96" stroke="#efad96" points="262.97,-113.19 252.68,-110.68 259.16,-119.06 262.97,-113.19"/>
</g>
<!-- src/typingMetrics/TypingMetrics.ts&#45;&gt;src/typingMetrics/TypingProjection.ts -->
<g id="edge33" class="edge">
<title>src/typingMetrics/TypingMetrics.ts&#45;&gt;src/typingMetrics/TypingProjection.ts</title>
<path fill="none" stroke="#efad96" d="M366.79,-365.17C353.05,-354.93 335.55,-341.56 320.53,-329 264.27,-281.96 201.67,-223.22 167.43,-190.49"/>
<polygon fill="#efad96" stroke="#efad96" points="170.09,-188.19 160.45,-183.8 165.25,-193.24 170.09,-188.19"/>
</g>
<!-- src/typingMetrics/TypingMetrics.ts&#45;&gt;src/typingMetrics/KeypressMetricsSessions.ts -->
<g id="edge35" class="edge">
<title>src/typingMetrics/TypingMetrics.ts&#45;&gt;src/typingMetrics/KeypressMetricsSessions.ts</title>
<path fill="none" stroke="#efad96" d="M425.76,-365.13C444.85,-355.72 468.65,-343.98 489.12,-333.89"/>
<polygon fill="#efad96" stroke="#efad96" points="490.39,-337.17 497.81,-329.6 487.29,-330.89 490.39,-337.17"/>
</g>
<!-- src/typingContent/TypingGameSource.ts&#45;&gt;src/typingContent/paragraphs/types.ts -->
<g id="edge29" class="edge">
<title>src/typingContent/TypingGameSource.ts&#45;&gt;src/typingContent/paragraphs/types.ts</title>
<path fill="none" stroke="#2e90d0" d="M1090.46,-219.04C1049.33,-208.94 997.4,-196.18 954.54,-185.65"/>
<polygon fill="#2e90d0" stroke="#2e90d0" points="955.59,-182.3 945.04,-183.31 953.92,-189.1 955.59,-182.3"/>
</g>
<!-- src/typingContent/TypingGameSource.ts&#45;&gt;src/typingOptions/typingOptions.ts -->
<g id="edge27" class="edge">
<title>src/typingContent/TypingGameSource.ts&#45;&gt;src/typingOptions/typingOptions.ts</title>
<path fill="none" stroke="#2e90d0" d="M1166.93,-255.99C1167.38,-275.98 1161.14,-308.57 1142.53,-329 1129.97,-342.78 1113.32,-353.11 1095.92,-360.82"/>
<polygon fill="#2e90d0" stroke="#2e90d0" points="1094.93,-357.45 1087.01,-364.49 1097.59,-363.92 1094.93,-357.45"/>
</g>
<!-- src/typingContent/randomContent.ts -->
<g id="node17" class="node">
<title>src/typingContent/randomContent.ts</title>
<polygon fill="none" stroke="black" points="1054.53,-146.5 1054.53,-182.5 1268.53,-182.5 1268.53,-146.5 1054.53,-146.5"/>
<text text-anchor="middle" x="1161.53" y="-159.45" font-family="Times,serif" font-size="14.00">src/typingContent/randomContent.ts</text>
</g>
<!-- src/typingContent/TypingGameSource.ts&#45;&gt;src/typingContent/randomContent.ts -->
<g id="edge28" class="edge">
<title>src/typingContent/TypingGameSource.ts&#45;&gt;src/typingContent/randomContent.ts</title>
<path fill="none" stroke="#2e90d0" d="M1161.53,-219.31C1161.53,-211.73 1161.53,-202.6 1161.53,-194.04"/>
<polygon fill="#2e90d0" stroke="#2e90d0" points="1165.03,-194.04 1161.53,-184.04 1158.03,-194.04 1165.03,-194.04"/>
</g>
<!-- src/typingOptions/typingGameOptions.ts&#45;&gt;src/typingContent/TypingGameSource.ts -->
<g id="edge30" class="edge">
<title>src/typingOptions/typingGameOptions.ts&#45;&gt;src/typingContent/TypingGameSource.ts</title>
<path fill="none" stroke="#3de4ef" d="M1042.94,-292.13C1063.94,-282.63 1090.18,-270.77 1112.63,-260.61"/>
<polygon fill="#3de4ef" stroke="#3de4ef" points="1113.93,-263.87 1121.6,-256.56 1111.04,-257.49 1113.93,-263.87"/>
</g>
<!-- src/typingOptions/typingGameOptions.ts&#45;&gt;src/typingOptions/typingModeKind.ts -->
<g id="edge31" class="edge">
<title>src/typingOptions/typingGameOptions.ts&#45;&gt;src/typingOptions/typingModeKind.ts</title>
<path fill="none" stroke="#3de4ef" d="M982.26,-292.31C970.7,-283.4 956.4,-272.36 943.76,-262.6"/>
<polygon fill="#3de4ef" stroke="#3de4ef" points="946.17,-260.04 936.11,-256.7 941.89,-265.58 946.17,-260.04"/>
</g>
<!-- src/typingMetrics/PromptCharacterMetrics.ts -->
<g id="node18" class="node">
<title>src/typingMetrics/PromptCharacterMetrics.ts</title>
<polygon fill="none" stroke="black" points="270.78,-73.5 270.78,-109.5 534.28,-109.5 534.28,-73.5 270.78,-73.5"/>
<text text-anchor="middle" x="402.53" y="-86.45" font-family="Times,serif" font-size="14.00">src/typingMetrics/PromptCharacterMetrics.ts</text>
</g>
<!-- src/typingMetrics/PromptCharacterMetrics.ts&#45;&gt;src/typingContent/character/types.ts -->
<g id="edge36" class="edge">
<title>src/typingMetrics/PromptCharacterMetrics.ts&#45;&gt;src/typingContent/character/types.ts</title>
<path fill="none" stroke="#c6839e" d="M488.11,-73.04C538.26,-62.81 601.76,-49.85 653.74,-39.25"/>
<polygon fill="#c6839e" stroke="#c6839e" points="654.4,-42.68 663.5,-37.26 653,-35.83 654.4,-42.68"/>
</g>
</g>
</svg>
